<?xml version="1.0" standalone="no"?>
<!DOCTYPE svg PUBLIC "-//W3C//DTD SVG 20010904//EN"
 "http://www.w3.org/TR/2001/REC-SVG-20010904/DTD/svg10.dtd">
<svg version="1.0" xmlns="http://www.w3.org/2000/svg"
 width="500.000000pt" height="500.000000pt" viewBox="0 0 500.000000 500.000000"
 preserveAspectRatio="xMidYMid meet">
<metadata>
Created by potrace 1.14, written by Peter Selinger 2001-2017
</metadata>
<g transform="translate(0.000000,500.000000) scale(0.100000,-0.100000)"
fill="#000000" stroke="none">
<path d="M0 2500 l0 -2500 2500 0 2500 0 0 2500 0 2500 -2500 0 -2500 0 0
-2500z m4640 1000 l0 -1000 -736 0 -735 0 19 -27 c11 -16 22 -39 26 -53 6 -21
0 -18 -33 19 l-39 44 -7 -99 c-3 -55 -10 -124 -15 -154 -5 -30 -14 -120 -20
-200 -18 -252 -56 -530 -72 -530 -11 0 -10 53 2 142 31 232 40 315 39 361 l-1
52 -8 -45 c-4 -25 -10 -68 -14 -97 -3 -28 -12 -80 -20 -115 -8 -35 -19 -110
-26 -168 -12 -112 -26 -170 -41 -170 -5 0 -9 3 -9 8 1 10 35 251 61 422 11 74
49 380 49 395 0 6 -20 -37 -43 -95 -24 -58 -57 -134 -74 -170 -17 -36 -55
-123 -85 -195 -30 -71 -71 -164 -91 -206 l-35 -76 35 -37 c28 -29 34 -43 30
-64 -11 -58 -45 -169 -65 -214 -11 -27 -18 -48 -14 -48 4 0 -1 -5 -11 -11 -35
-20 -150 -22 -233 -4 -97 21 -238 74 -324 122 -59 33 -62 37 -42 46 22 10 30
25 37 73 8 63 24 118 39 132 20 21 218 18 301 -4 72 -18 179 -60 223 -87 26
-15 36 -17 45 -7 9 9 3 20 -28 47 -82 73 -198 108 -423 128 -71 6 -73 6 -102
-24 -17 -16 -30 -24 -30 -17 0 7 12 23 26 37 24 22 34 24 157 27 124 3 138 2
225 -26 l93 -30 10 26 c34 92 69 173 124 287 34 72 79 168 101 215 21 47 65
135 96 197 62 119 81 163 72 163 -3 0 -33 -26 -66 -57 l-61 -58 28 53 c16 28
42 61 59 72 31 20 30 20 -1341 20 l-1373 0 0 1000 0 1000 2160 0 2160 0 0
-1000z m-1165 -1955 c17 -6 34 -12 39 -13 5 0 14 -8 19 -18 14 -25 38 -158 42
-237 l3 -67 -45 -32 c-62 -42 -120 -63 -232 -82 -107 -18 -326 -22 -336 -6 -4
6 -2 17 4 24 9 11 6 36 -10 101 -31 123 -31 122 151 198 61 26 73 29 164 42
48 7 121 11 162 9 66 -3 74 -1 74 15 0 14 -13 21 -60 31 -93 20 -206 8 -336
-35 -137 -45 -170 -64 -183 -107 -7 -24 -9 -27 -10 -11 -2 52 20 73 138 130
87 42 134 59 195 69 87 13 173 9 221 -11z m-1421 -287 c-4 -7 -32 -49 -62 -93
-99 -147 -173 -326 -187 -452 -14 -121 27 -187 162 -256 217 -111 418 -143
494 -80 41 35 54 72 73 207 24 177 36 178 32 3 -2 -87 1 -150 6 -153 6 -4 22
2 36 13 73 54 107 194 121 503 5 85 9 128 10 95 10 -224 -12 -452 -52 -539
-31 -68 -85 -111 -127 -102 -21 4 -30 2 -30 -7 0 -20 -50 -64 -92 -81 -76 -32
-214 -10 -401 64 -231 91 -302 191 -268 373 32 167 100 309 208 432 67 78 96
104 77 73z m1619 -173 c67 -132 91 -188 127 -300 53 -164 51 -269 -6 -314 -14
-11 -32 -17 -41 -14 -12 5 -15 2 -10 -10 16 -43 -46 -137 -114 -173 -70 -36
-201 -57 -364 -58 -180 -1 -216 7 -275 60 -71 65 -120 232 -120 408 1 92 30
238 64 316 19 45 19 35 0 -75 -19 -107 -22 -321 -5 -419 23 -133 72 -207 158
-237 60 -22 307 -16 410 8 97 24 167 62 189 105 22 42 14 128 -19 228 -14 41
-28 93 -31 115 -6 36 -5 38 6 15 25 -52 85 -186 98 -217 27 -70 70 -22 70 77
0 111 -79 357 -169 526 -17 31 -31 59 -31 62 0 15 21 -20 63 -103z m-933 35
c0 -5 -2 -10 -4 -10 -3 0 -8 5 -11 10 -3 6 -1 10 4 10 6 0 11 -4 11 -10z"/>
<path d="M390 3500 l0 -930 1319 0 1319 0 -16 41 c-13 35 -14 42 -1 50 18 12
69 3 88 -15 11 -12 19 -8 51 26 33 34 41 38 59 28 25 -13 27 -46 7 -95 l-15
-35 685 0 684 0 0 930 0 930 -2090 0 -2090 0 0 -930z m536 288 c16 -9 44 -31
61 -48 31 -31 59 -102 48 -120 -3 -6 -33 -10 -65 -10 -58 0 -60 1 -74 33 -17
41 -61 62 -117 54 -48 -6 -79 -31 -79 -63 0 -32 29 -49 130 -74 144 -37 189
-63 216 -127 30 -70 3 -171 -56 -213 -69 -49 -206 -67 -299 -39 -66 20 -130
83 -146 144 -7 28 -11 53 -8 58 2 4 33 7 69 7 53 0 66 -3 70 -17 22 -70 68
-98 146 -91 57 6 88 30 88 69 0 38 -27 54 -151 90 -138 40 -182 72 -197 145
-10 47 2 107 28 145 11 15 44 39 73 54 47 24 60 26 142 23 57 -3 101 -10 121
-20z m354 -103 l0 -125 105 0 105 0 0 125 0 125 70 0 70 0 0 -315 0 -315 -70
0 -70 0 0 125 0 125 -105 0 -105 0 0 -125 0 -125 -70 0 -70 0 0 308 c0 170 3
312 7 315 3 4 35 7 70 7 l63 0 0 -125z m907 -185 c67 -167 123 -308 123 -312
0 -5 -33 -8 -72 -6 l-73 3 -21 60 -21 60 -119 0 -119 0 -21 -60 -21 -60 -76
-3 -76 -3 124 305 c68 168 127 311 130 316 4 6 31 10 63 8 l55 -3 124 -305z
m416 300 c156 -25 256 -134 265 -290 5 -97 -21 -170 -84 -235 -72 -74 -115
-89 -276 -93 l-138 -4 0 309 c0 170 3 313 7 316 10 10 159 8 226 -3z m771 -10
c65 -25 144 -98 176 -165 34 -69 38 -165 10 -237 -28 -75 -96 -150 -168 -185
-79 -39 -182 -40 -262 -2 -65 31 -132 96 -163 159 -31 64 -32 206 0 265 36 68
91 122 155 154 76 39 167 42 252 11z m391 10 c3 -5 22 -98 40 -206 19 -109 36
-198 38 -200 2 -2 30 90 63 204 l59 207 67 3 66 3 15 -52 c9 -29 35 -121 58
-205 24 -85 46 -154 49 -154 3 0 21 91 40 203 l35 202 75 0 c44 0 75 -4 74
-10 -1 -5 -28 -146 -60 -312 l-58 -303 -83 0 -82 0 -17 58 c-9 31 -38 129 -64
217 l-47 160 -21 -70 c-12 -38 -41 -135 -65 -215 l-43 -145 -84 0 -83 0 -58
295 c-32 162 -58 303 -58 313 -1 15 9 17 68 17 39 0 73 -4 76 -10z"/>
<path d="M1995 3619 c-29 -83 -65 -189 -65 -193 0 -3 34 -6 75 -6 41 0 75 1
75 3 0 6 -72 202 -75 206 -3 2 -7 -2 -10 -10z"/>
<path d="M2510 3496 l0 -186 39 0 c76 0 130 35 162 105 23 49 24 104 4 152
-29 69 -69 98 -153 109 l-52 7 0 -187z"/>
<path d="M3245 3675 c-5 -2 -22 -6 -37 -9 -34 -8 -94 -59 -114 -97 -32 -63 -7
-172 51 -217 86 -68 202 -48 266 46 19 28 24 48 24 98 0 55 -4 67 -31 101 -44
53 -118 90 -159 78z"/>
<path d="M3177 2662 c-21 -23 -35 -92 -19 -92 12 0 46 83 40 100 -2 7 -10 4
-21 -8z"/>
<path d="M3040 2622 c0 -23 30 -52 53 -52 25 0 20 26 -9 49 -33 26 -44 26 -44
3z"/>
<path d="M3081 2214 c0 -11 3 -14 6 -6 3 7 2 16 -1 19 -3 4 -6 -2 -5 -13z"/>
<path d="M2930 2088 c-137 -289 -192 -405 -219 -461 -26 -51 -27 -58 -12 -66
13 -8 20 3 42 62 36 96 129 313 211 486 26 57 47 106 45 108 -2 2 -32 -56 -67
-129z"/>
<path d="M3072 2085 c0 -16 2 -22 5 -12 2 9 2 23 0 30 -3 6 -5 -1 -5 -18z"/>
<path d="M2201 1514 c-37 -26 -27 -49 24 -51 68 -3 231 -32 310 -54 75 -22
178 -60 173 -65 -2 -1 -35 6 -73 17 -72 20 -175 40 -325 64 -47 7 -96 16 -110
20 -24 6 -27 2 -44 -50 -10 -31 -16 -58 -14 -60 2 -2 35 -19 73 -38 82 -40
205 -81 293 -98 59 -11 176 -8 190 5 24 25 -190 102 -406 147 -115 23 -146 38
-82 39 96 0 319 -66 439 -131 30 -16 55 -28 56 -26 1 1 7 35 14 76 15 85 21
76 -85 126 -142 68 -385 112 -433 79z"/>
<path d="M3220 1406 c-75 -17 -183 -52 -218 -70 -33 -17 -43 -35 -36 -64 5
-19 7 -18 63 4 131 53 471 119 471 92 0 -4 -12 -8 -28 -8 -45 0 -294 -60 -391
-94 -24 -9 -56 -16 -72 -16 -15 0 -30 -3 -32 -7 -3 -5 0 -34 6 -65 l10 -58 96
0 c117 0 270 22 341 49 59 22 135 69 126 78 -9 10 -167 5 -236 -7 -36 -7 -113
-23 -171 -36 -58 -13 -116 -24 -128 -24 -42 0 -11 18 66 39 147 39 241 52 354
49 93 -3 108 -1 104 12 -2 8 -7 29 -11 45 -4 17 -9 35 -13 40 -3 6 -6 15 -7
20 0 6 -2 16 -2 23 -3 16 -216 15 -292 -2z"/>
</g>
</svg>
